<mxfile host="app.diagrams.net" agent="Mozilla/5.0 (Windows NT 10.0; Win64; x64) AppleWebKit/537.36 (KHTML, like Gecko) Chrome/139.0.0.0 Safari/537.36" version="28.1.1">
  <diagram name="Page-1" id="2YQik-SlS8WPk7ewhesH">
    <mxGraphModel dx="1965" dy="1128" grid="1" gridSize="10" guides="1" tooltips="1" connect="0" arrows="0" fold="1" page="1" pageScale="1" pageWidth="1700" pageHeight="1100" math="0" shadow="0">
      <root>
        <mxCell id="0" />
        <mxCell id="1" parent="0" />
        <mxCell id="iuSCcMEhcNX1jo_AxFMK-1" value="SWTCH" style="sketch=0;points=[[0.015,0.015,0],[0.985,0.015,0],[0.985,0.985,0],[0.015,0.985,0],[0.25,0,0],[0.5,0,0],[0.75,0,0],[1,0.25,0],[1,0.5,0],[1,0.75,0],[0.75,1,0],[0.5,1,0],[0.25,1,0],[0,0.75,0],[0,0.5,0],[0,0.25,0]];verticalLabelPosition=bottom;html=1;verticalAlign=top;aspect=fixed;align=center;pointerEvents=1;shape=mxgraph.cisco19.rect;prIcon=l3_switch;fillColor=#FAFAFA;strokeColor=#005073;fontSize=20;" parent="1" vertex="1">
          <mxGeometry x="828.5" y="690" width="60" height="60" as="geometry" />
        </mxCell>
        <mxCell id="iuSCcMEhcNX1jo_AxFMK-2" value="SERVER" style="image;html=1;image=img/lib/clip_art/computers/Server_Tower_128x128.png;fontSize=20;shadow=0;" parent="1" vertex="1">
          <mxGeometry x="390" y="720" width="60" height="60" as="geometry" />
        </mxCell>
        <mxCell id="iuSCcMEhcNX1jo_AxFMK-3" value="PC1" style="shape=mxgraph.cisco.computers_and_peripherals.pc;html=1;pointerEvents=1;dashed=0;fillColor=#036897;strokeColor=#ffffff;strokeWidth=2;verticalLabelPosition=bottom;verticalAlign=top;align=center;outlineConnect=0;fontSize=20;" parent="1" vertex="1">
          <mxGeometry x="1110" y="660" width="60" height="60" as="geometry" />
        </mxCell>
        <mxCell id="iuSCcMEhcNX1jo_AxFMK-4" value="PC2" style="shape=mxgraph.cisco.computers_and_peripherals.pc;html=1;pointerEvents=1;dashed=0;fillColor=#036897;strokeColor=#ffffff;strokeWidth=2;verticalLabelPosition=bottom;verticalAlign=top;align=center;outlineConnect=0;fontSize=20;" parent="1" vertex="1">
          <mxGeometry x="1230" y="660" width="60" height="60" as="geometry" />
        </mxCell>
        <mxCell id="iuSCcMEhcNX1jo_AxFMK-5" value="INTERNET" style="image;aspect=fixed;perimeter=ellipsePerimeter;html=1;align=center;shadow=0;dashed=0;spacingTop=3;image=img/lib/active_directory/internet_globe.svg;fontSize=20;" parent="1" vertex="1">
          <mxGeometry x="827" width="63" height="63" as="geometry" />
        </mxCell>
        <mxCell id="iuSCcMEhcNX1jo_AxFMK-7" value="PERIMETER FIREWALL" style="image;html=1;image=img/lib/clip_art/networking/Firewall_02_128x128.png;fontSize=20;" parent="1" vertex="1">
          <mxGeometry x="828.5" y="362" width="60" height="60" as="geometry" />
        </mxCell>
        <mxCell id="iuSCcMEhcNX1jo_AxFMK-8" value="&lt;font style=&quot;line-height: 60%;&quot;&gt;ROUTER/WIFI&lt;/font&gt;" style="image;html=1;image=img/lib/clip_art/networking/Router_Icon_128x128.png;fontSize=20;" parent="1" vertex="1">
          <mxGeometry x="828.5" y="518" width="60" height="60" as="geometry" />
        </mxCell>
        <mxCell id="iuSCcMEhcNX1jo_AxFMK-11" value="MODEM" style="image;aspect=fixed;perimeter=ellipsePerimeter;html=1;align=center;shadow=0;dashed=0;spacingTop=3;image=img/lib/active_directory/modem.svg;fontSize=20;" parent="1" vertex="1">
          <mxGeometry x="823" y="190" width="60" height="60" as="geometry" />
        </mxCell>
        <mxCell id="iuSCcMEhcNX1jo_AxFMK-15" value="CLOUD&lt;div&gt;&lt;br&gt;&lt;/div&gt;" style="sketch=0;pointerEvents=1;shadow=0;dashed=0;html=1;strokeColor=none;aspect=fixed;labelPosition=center;verticalLabelPosition=bottom;verticalAlign=top;align=center;outlineConnect=0;shape=mxgraph.vvd.cloud_computing;fillColor=#066A90;fontSize=20;" parent="1" vertex="1">
          <mxGeometry x="870" y="900.0000000000001" width="60" height="60" as="geometry" />
        </mxCell>
        <mxCell id="iuSCcMEhcNX1jo_AxFMK-31" value="NAS" style="sketch=0;pointerEvents=1;shadow=0;dashed=0;html=1;strokeColor=none;fillColor=#005F4B;labelPosition=center;verticalLabelPosition=bottom;verticalAlign=top;align=center;outlineConnect=0;shape=mxgraph.veeam2.nas;fontSize=20;" parent="1" vertex="1">
          <mxGeometry x="790" y="900" width="60" height="60" as="geometry" />
        </mxCell>
        <mxCell id="iuSCcMEhcNX1jo_AxFMK-33" value="PRINTER1" style="html=1;verticalLabelPosition=bottom;align=center;labelBackgroundColor=#ffffff;verticalAlign=top;strokeWidth=2;strokeColor=#0080F0;shadow=0;dashed=0;shape=mxgraph.ios7.icons.printer;fontSize=20;" parent="1" vertex="1">
          <mxGeometry x="1170" y="750" width="60" height="60" as="geometry" />
        </mxCell>
        <mxCell id="iuSCcMEhcNX1jo_AxFMK-35" value="VOIP" style="sketch=0;pointerEvents=1;shadow=0;dashed=0;html=1;strokeColor=none;fillColor=#505050;labelPosition=center;verticalLabelPosition=bottom;verticalAlign=top;outlineConnect=0;align=center;shape=mxgraph.office.devices.phone_voip;fontSize=20;" parent="1" vertex="1">
          <mxGeometry x="470" y="720" width="60" height="60" as="geometry" />
        </mxCell>
        <mxCell id="iuSCcMEhcNX1jo_AxFMK-49" value="" style="rounded=1;whiteSpace=wrap;html=1;fillColor=light-dark(#FFFFFF,#FF0000);opacity=40;fontSize=20;" parent="1" vertex="1">
          <mxGeometry x="310" y="640" width="280" height="200" as="geometry" />
        </mxCell>
        <mxCell id="iuSCcMEhcNX1jo_AxFMK-50" value="" style="rounded=1;whiteSpace=wrap;html=1;fillColor=light-dark(#FFFFFF,#00FF00);opacity=50;fontSize=20;" parent="1" vertex="1">
          <mxGeometry x="1030" y="640" width="340" height="260" as="geometry" />
        </mxCell>
        <mxCell id="iuSCcMEhcNX1jo_AxFMK-63" value="" style="shape=singleArrow;whiteSpace=wrap;html=1;fillColor=light-dark(#FFFFFF,#33FF33);fontSize=20;" parent="1" vertex="1">
          <mxGeometry x="920" y="690" width="80" height="60" as="geometry" />
        </mxCell>
        <mxCell id="iuSCcMEhcNX1jo_AxFMK-64" value="" style="shape=singleArrow;direction=south;whiteSpace=wrap;html=1;fillColor=light-dark(#FFFFFF,#33FF33);arrowWidth=0.3333333333333333;arrowSize=0.3138880411783854;fontSize=20;" parent="1" vertex="1">
          <mxGeometry x="830" y="800" width="60" height="60" as="geometry" />
        </mxCell>
        <mxCell id="iuSCcMEhcNX1jo_AxFMK-66" value="" style="shape=singleArrow;direction=south;whiteSpace=wrap;html=1;fillColor=light-dark(#FFFFFF,#FF3333);fontSize=20;" parent="1" vertex="1">
          <mxGeometry x="830" y="113.3" width="60" height="60" as="geometry" />
        </mxCell>
        <mxCell id="iuSCcMEhcNX1jo_AxFMK-67" value="" style="shape=singleArrow;direction=south;whiteSpace=wrap;html=1;fillColor=light-dark(#FFFFFF,#FF3333);fontSize=20;" parent="1" vertex="1">
          <mxGeometry x="830" y="290" width="60" height="60" as="geometry" />
        </mxCell>
        <mxCell id="iuSCcMEhcNX1jo_AxFMK-71" value="" style="shape=singleArrow;direction=south;whiteSpace=wrap;html=1;fillColor=light-dark(#FFFFFF,#FF3333);fontSize=20;" parent="1" vertex="1">
          <mxGeometry x="420" y="382" width="60" height="228" as="geometry" />
        </mxCell>
        <mxCell id="iuSCcMEhcNX1jo_AxFMK-72" value="" style="shape=singleArrow;direction=west;whiteSpace=wrap;html=1;fillColor=light-dark(#FFFFFF,#FF3333);fontSize=20;" parent="1" vertex="1">
          <mxGeometry x="710" y="690" width="90" height="60" as="geometry" />
        </mxCell>
        <mxCell id="iuSCcMEhcNX1jo_AxFMK-77" value="" style="shape=singleArrow;direction=south;whiteSpace=wrap;html=1;fillColor=light-dark(#FFFFFF,#33FF33);fontSize=20;" parent="1" vertex="1">
          <mxGeometry x="830" y="610" width="60" height="60" as="geometry" />
        </mxCell>
        <mxCell id="iuSCcMEhcNX1jo_AxFMK-78" value="BUSINESS GUEST WIFI&amp;nbsp;&amp;nbsp;" style="sketch=0;pointerEvents=1;shadow=0;dashed=0;html=1;strokeColor=none;fillColor=light-dark(#434445,#FFFFFF);aspect=fixed;labelPosition=center;verticalLabelPosition=bottom;verticalAlign=top;align=center;outlineConnect=0;shape=mxgraph.vvd.wi_fi;gradientColor=none;fillStyle=solid;fontSize=20;" parent="1" vertex="1">
          <mxGeometry x="1020" y="480" width="60" height="60" as="geometry" />
        </mxCell>
        <mxCell id="iuSCcMEhcNX1jo_AxFMK-79" value="LAPTOP" style="sketch=0;aspect=fixed;pointerEvents=1;shadow=0;dashed=0;html=1;strokeColor=none;labelPosition=center;verticalLabelPosition=bottom;verticalAlign=top;align=center;fillColor=#00188D;shape=mxgraph.azure.laptop;fontSize=20;" parent="1" vertex="1">
          <mxGeometry x="1380" y="340" width="60" height="60" as="geometry" />
        </mxCell>
        <mxCell id="iuSCcMEhcNX1jo_AxFMK-80" value="SMARTPHONES" style="shape=image;html=1;verticalAlign=top;verticalLabelPosition=bottom;labelBackgroundColor=#ffffff;imageAspect=0;aspect=fixed;image=https://icons.diagrams.net/icon-cache1/Smart_Phones-2615/iphone-615.png;fontSize=20;" parent="1" vertex="1">
          <mxGeometry x="1240" y="280" width="60" height="60" as="geometry" />
        </mxCell>
        <mxCell id="iuSCcMEhcNX1jo_AxFMK-82" value="BLOCKED" style="shape=mxgraph.arrows.arrow_right;html=1;verticalLabelPosition=bottom;verticalAlign=top;strokeWidth=2;strokeColor=#000000;fontColor=light-dark(#000000,#FFFFFF);fillColor=light-dark(#FFFFFF,#FF3333);fontSize=20;" parent="1" vertex="1">
          <mxGeometry x="150" y="210" width="60" height="60" as="geometry" />
        </mxCell>
        <mxCell id="iuSCcMEhcNX1jo_AxFMK-83" value="ALLOWED" style="shape=mxgraph.arrows.arrow_right;html=1;verticalLabelPosition=bottom;verticalAlign=top;strokeWidth=2;strokeColor=#000000;fillColor=light-dark(#FFFFFF,#33FF33);fontSize=20;" parent="1" vertex="1">
          <mxGeometry x="150" y="113.30000000000001" width="60" height="60" as="geometry" />
        </mxCell>
        <mxCell id="iuSCcMEhcNX1jo_AxFMK-84" value="" style="aspect=fixed;textOpacity=0;opacity=40;fillColor=light-dark(#FFFFFF,#FFFFFF);whiteSpace=wrap;html=1;fontColor=light-dark(#000000,#FFFFFF);" parent="1" vertex="1">
          <mxGeometry x="45" y="50" width="270" height="270" as="geometry" />
        </mxCell>
        <mxCell id="oykZmhGkkEYHmzwpc8Wg-1" value="INTERNAL FIREWALL" style="image;html=1;image=img/lib/clip_art/networking/Firewall_02_128x128.png;fontSize=15;" parent="1" vertex="1">
          <mxGeometry x="640" y="700" width="60" height="60" as="geometry" />
        </mxCell>
        <mxCell id="oykZmhGkkEYHmzwpc8Wg-3" value="" style="shape=singleArrow;direction=south;whiteSpace=wrap;html=1;fillColor=light-dark(#FFFFFF,#33FF33);fontSize=20;" parent="1" vertex="1">
          <mxGeometry x="827" y="460" width="60" height="60" as="geometry" />
        </mxCell>
        <mxCell id="oykZmhGkkEYHmzwpc8Wg-6" value="" style="rounded=0;whiteSpace=wrap;html=1;fillColor=light-dark(#FFFFFF,#FF3333);" parent="1" vertex="1">
          <mxGeometry x="460" y="382" width="320" height="20" as="geometry" />
        </mxCell>
        <mxCell id="oykZmhGkkEYHmzwpc8Wg-10" value="" style="rounded=1;whiteSpace=wrap;html=1;fillColor=light-dark(#FFFFFF,#3399FF);opacity=60;" parent="1" vertex="1">
          <mxGeometry x="725" y="880" width="270" height="160" as="geometry" />
        </mxCell>
        <mxCell id="oykZmhGkkEYHmzwpc8Wg-12" value="DMZ" style="text;html=1;align=center;verticalAlign=middle;whiteSpace=wrap;rounded=0;fontSize=40;" parent="1" vertex="1">
          <mxGeometry x="430" y="670" width="60" height="30" as="geometry" />
        </mxCell>
        <mxCell id="oykZmhGkkEYHmzwpc8Wg-13" value="STORAGE" style="text;html=1;align=center;verticalAlign=middle;whiteSpace=wrap;rounded=0;fontSize=27;" parent="1" vertex="1">
          <mxGeometry x="823" y="1000" width="60" height="30" as="geometry" />
        </mxCell>
        <mxCell id="oykZmhGkkEYHmzwpc8Wg-14" value="LAN" style="text;html=1;align=center;verticalAlign=middle;whiteSpace=wrap;rounded=0;fontSize=35;" parent="1" vertex="1">
          <mxGeometry x="1170" y="860" width="60" height="30" as="geometry" />
        </mxCell>
        <mxCell id="9UMHTlKx-9gqxpLbNUBq-1" value="Traffic" style="text;html=1;align=center;verticalAlign=middle;whiteSpace=wrap;rounded=0;fontSize=39;" vertex="1" parent="1">
          <mxGeometry x="145" y="70" width="60" height="30" as="geometry" />
        </mxCell>
        <mxCell id="9UMHTlKx-9gqxpLbNUBq-3" value="" style="html=1;verticalLabelPosition=bottom;align=center;labelBackgroundColor=#ffffff;verticalAlign=top;strokeWidth=2;strokeColor=#0080F0;shadow=0;dashed=0;shape=mxgraph.ios7.icons.locked;" vertex="1" parent="1">
          <mxGeometry x="1080" y="470" width="24" height="30" as="geometry" />
        </mxCell>
        <mxCell id="9UMHTlKx-9gqxpLbNUBq-4" value="" style="ellipse;whiteSpace=wrap;html=1;labelBackgroundColor=light-dark(#FFFFFF,#FFFFFF);strokeColor=light-dark(#000000,#FFFFFF);fillColor=light-dark(#FFFFFF,#E5CCFF);opacity=40;" vertex="1" parent="1">
          <mxGeometry x="1150" y="200" width="350" height="300" as="geometry" />
        </mxCell>
        <mxCell id="9UMHTlKx-9gqxpLbNUBq-5" value="SECURITY CAMS" style="fontColor=light-dark(#0066CC,#FFFFFF);verticalAlign=top;verticalLabelPosition=bottom;labelPosition=center;align=center;html=1;outlineConnect=0;fillColor=#CCCCCC;strokeColor=light-dark(#6881B3,#FFFFFF);gradientColor=none;gradientDirection=north;strokeWidth=2;shape=mxgraph.networks.security_camera;" vertex="1" parent="1">
          <mxGeometry x="1240" y="382" width="80" height="55" as="geometry" />
        </mxCell>
        <mxCell id="9UMHTlKx-9gqxpLbNUBq-6" value="BUSINESS PRIVATE WIFI" style="text;html=1;align=center;verticalAlign=middle;whiteSpace=wrap;rounded=0;fontSize=20;" vertex="1" parent="1">
          <mxGeometry x="1300" y="240" width="60" height="30" as="geometry" />
        </mxCell>
        <mxCell id="9UMHTlKx-9gqxpLbNUBq-8" value="I" style="endArrow=classic;html=1;rounded=0;entryX=0.25;entryY=0.94;entryDx=0;entryDy=0;entryPerimeter=0;exitX=0.907;exitY=0.875;exitDx=0;exitDy=0;exitPerimeter=0;" edge="1" parent="1" source="oykZmhGkkEYHmzwpc8Wg-10" target="iuSCcMEhcNX1jo_AxFMK-50">
          <mxGeometry relative="1" as="geometry">
            <mxPoint x="1030" y="970" as="sourcePoint" />
            <mxPoint x="1130" y="970" as="targetPoint" />
          </mxGeometry>
        </mxCell>
        <mxCell id="9UMHTlKx-9gqxpLbNUBq-9" value="Label" style="edgeLabel;resizable=0;html=1;;align=center;verticalAlign=middle;" connectable="0" vertex="1" parent="9UMHTlKx-9gqxpLbNUBq-8">
          <mxGeometry relative="1" as="geometry" />
        </mxCell>
        <mxCell id="9UMHTlKx-9gqxpLbNUBq-10" value="TRUSTED INTERNAL LAN" style="edgeLabel;html=1;align=center;verticalAlign=middle;resizable=0;points=[];fontSize=20;" vertex="1" connectable="0" parent="9UMHTlKx-9gqxpLbNUBq-8">
          <mxGeometry x="0.003" y="-3" relative="1" as="geometry">
            <mxPoint x="85" y="6" as="offset" />
          </mxGeometry>
        </mxCell>
        <mxCell id="9UMHTlKx-9gqxpLbNUBq-11" value="" style="html=1;verticalLabelPosition=bottom;align=center;labelBackgroundColor=#ffffff;verticalAlign=top;strokeWidth=2;strokeColor=#0080F0;shadow=0;dashed=0;shape=mxgraph.ios7.icons.locked;" vertex="1" parent="1">
          <mxGeometry x="1240" y="225" width="24" height="30" as="geometry" />
        </mxCell>
      </root>
    </mxGraphModel>
  </diagram>
</mxfile>
